<?xml version="1.0" standalone="no"?>
<!DOCTYPE svg PUBLIC "-//W3C//DTD SVG 20010904//EN"
 "http://www.w3.org/TR/2001/REC-SVG-20010904/DTD/svg10.dtd">
<svg version="1.0" xmlns="http://www.w3.org/2000/svg"
 width="2000.000000pt" height="2000.000000pt" viewBox="0 0 2000.000000 2000.000000"
 preserveAspectRatio="xMidYMid meet">

<g transform="translate(0.000000,2000.000000) scale(0.100000,-0.100000)"
fill="#000000" stroke="none">
<path d="M10285 13563 c-141 -13 -320 -61 -430 -116 -186 -92 -352 -270 -492
-527 -80 -147 -208 -509 -187 -529 3 -3 149 -8 324 -9 l319 -4 5 24 c3 12 12
57 20 98 29 149 63 215 157 305 50 49 60 55 55 35 -4 -14 -16 -59 -27 -100
-22 -81 -28 -207 -15 -302 l7 -58 278 0 c153 0 281 3 284 6 3 4 1 16 -6 28 -7
12 -12 61 -12 116 0 82 4 103 27 153 15 32 35 68 45 81 18 22 18 19 19 -98 1
-146 23 -267 70 -391 44 -114 128 -268 206 -379 3 -5 35 20 70 55 42 43 91 79
147 108 79 41 86 43 150 39 77 -6 131 -30 183 -85 101 -104 94 -265 -17 -405
-84 -105 -209 -167 -357 -176 l-88 -5 0 -478 0 -479 38 -2 c20 0 44 -1 52 0
41 3 307 -43 423 -73 245 -64 442 -138 692 -260 307 -150 571 -332 855 -587
l101 -90 -144 -72 c-186 -92 -299 -169 -421 -286 -181 -174 -232 -262 -275
-475 -31 -157 -42 -272 -48 -525 -11 -443 37 -973 148 -1643 23 -136 40 -250
38 -252 -2 -1 -130 -35 -284 -75 -734 -188 -1232 -329 -1380 -390 -238 -98
-345 -146 -350 -158 -12 -32 39 -19 208 53 100 43 220 91 267 107 206 71 807
232 1724 463 379 96 693 178 697 182 5 5 5 14 0 21 -6 10 -95 -8 -410 -87
-221 -56 -408 -101 -415 -101 -24 0 -132 715 -170 1120 -59 626 -42 1120 48
1406 72 227 353 479 708 635 l91 40 40 -38 c130 -125 371 -408 500 -587 239
-331 458 -742 600 -1126 96 -258 185 -579 231 -830 127 -695 112 -1214 -45
-1558 -112 -244 -378 -492 -641 -598 l-83 -33 290 0 290 -1 40 67 c22 37 52
89 68 117 15 27 32 54 37 61 17 21 197 388 234 478 56 135 114 309 140 421 92
382 69 826 -64 1251 -25 79 -107 312 -124 350 -7 17 -44 100 -82 185 -206 467
-426 839 -703 1191 l-99 126 10 113 c19 202 -12 407 -81 535 -11 22 -21 58
-22 80 -1 75 -34 224 -84 372 -108 326 -309 598 -565 767 -149 98 -315 163
-540 211 -365 77 -450 109 -557 209 -45 41 -73 79 -98 130 -34 68 -37 80 -50
246 -20 249 -46 383 -116 613 -17 54 -50 175 -73 270 -87 344 -224 614 -406
798 -175 178 -436 286 -764 318 -108 11 -131 11 -211 4z m1500 -1743 c8 -47
21 -166 29 -265 15 -177 15 -180 55 -261 69 -138 197 -237 372 -288 31 -9 130
-31 220 -50 176 -38 303 -72 390 -106 330 -130 596 -407 743 -774 41 -100 83
-248 91 -316 3 -25 8 -58 11 -74 6 -27 3 -25 -46 25 -48 50 -56 64 -97 189
-141 427 -334 636 -763 828 -118 53 -245 97 -530 183 -299 90 -391 129 -446
192 -93 107 -113 210 -93 480 8 106 14 252 14 324 l0 133 17 -68 c10 -37 24
-105 33 -152z"/>
<path d="M9382 12260 c-63 -38 -81 -147 -35 -209 27 -35 86 -50 121 -30 112
63 85 259 -36 259 -9 0 -32 -9 -50 -20z"/>
<path d="M10043 12180 c-65 -40 -87 -111 -55 -183 23 -52 45 -67 98 -67 29 0
43 7 70 35 62 66 53 171 -18 215 -41 25 -55 25 -95 0z"/>
<path d="M9661 11968 c-85 -114 -84 -147 9 -203 66 -40 100 -45 100 -15 0 13
-19 31 -55 55 -30 19 -55 42 -55 51 0 8 20 41 43 72 60 78 69 96 55 110 -22
22 -36 12 -97 -70z"/>
<path d="M11273 11909 c-99 -38 -169 -132 -180 -245 -5 -44 -3 -55 11 -60 26
-10 43 12 49 66 6 54 30 108 51 116 8 3 30 -1 49 -10 30 -12 38 -23 50 -63 10
-35 19 -48 33 -48 47 0 18 120 -37 152 -16 10 -29 20 -29 24 0 10 58 29 86 29
28 0 55 26 48 45 -8 21 -68 18 -131 -6z"/>
<path d="M9725 11605 c-44 -17 -132 -80 -149 -107 -8 -14 -7 -22 6 -34 16 -16
20 -15 59 20 23 21 62 47 87 58 55 25 149 27 207 6 22 -8 46 -13 53 -11 24 9
12 42 -20 60 -45 23 -189 28 -243 8z"/>
<path d="M9242 11451 c-34 -77 -199 -423 -341 -714 -156 -320 -196 -418 -212
-515 -14 -84 -3 -190 32 -309 19 -64 24 -71 40 -63 17 9 17 13 4 51 -27 77
-48 212 -42 280 9 112 41 187 325 769 189 388 241 506 235 529 -8 32 -19 26
-41 -28z"/>
<path d="M9275 11357 c-29 -111 -95 -275 -190 -472 -139 -289 -175 -395 -190
-565 -6 -64 10 -338 20 -348 2 -2 30 14 62 35 111 75 254 155 396 222 151 73
562 235 574 228 5 -3 17 -1 28 3 19 7 20 15 17 202 l-3 195 -88 12 c-165 21
-273 73 -387 186 -78 77 -137 169 -187 293 l-34 80 -18 -71z"/>
<path d="M1706 11349 c-116 -19 -240 -109 -298 -215 -61 -113 -58 -15 -58
-1794 0 -1754 -2 -1678 51 -1782 27 -54 112 -143 164 -173 103 -59 78 -58 825
-56 390 1 691 -2 699 -7 13 -9 22 -67 56 -362 8 -69 26 -215 39 -325 14 -110
28 -222 32 -250 39 -328 86 -717 94 -785 6 -47 17 -139 25 -205 9 -66 19 -151
25 -190 5 -38 16 -137 25 -220 27 -256 55 -333 133 -372 36 -17 171 -18 3562
-18 1939 0 3537 3 3553 8 37 10 85 62 98 106 5 20 9 83 7 141 l-3 105 -1125 5
-1125 5 45 44 c161 157 344 274 562 360 87 34 246 76 328 87 30 4 63 11 74 16
16 9 16 12 4 24 -12 12 -26 12 -103 -1 -279 -48 -524 -156 -751 -331 -89 -69
-204 -178 -204 -194 0 -6 -32 -10 -76 -10 l-76 0 23 38 c70 114 203 258 311
335 67 48 262 136 478 217 117 44 153 67 127 82 -23 12 -467 -164 -572 -227
-138 -84 -262 -207 -368 -367 l-52 -78 -85 0 -85 0 -33 273 c-19 149 -44 358
-57 462 -24 194 -134 1093 -205 1675 -67 546 -60 519 -136 576 -34 27 -47 30
-153 37 -64 4 -207 10 -318 13 l-203 5 0 1479 c0 1058 -3 1494 -11 1532 -26
121 -114 240 -218 292 -117 60 54 56 -2571 55 -1323 -1 -2427 -5 -2454 -10z
m4976 -66 c93 -44 151 -100 196 -191 l37 -76 0 -1675 0 -1676 -32 -67 c-56
-119 -161 -202 -288 -228 -34 -7 -831 -9 -2470 -8 l-2420 3 -58 23 c-115 47
-202 139 -237 251 -20 62 -20 96 -20 1702 0 1623 0 1640 20 1700 44 130 127
214 255 258 60 20 61 20 2505 18 l2445 -2 67 -32z m-1262 -4690 c151 -62 188
-265 70 -383 -150 -151 -404 -44 -402 168 1 174 169 282 332 215z"/>
<path d="M15235 9746 c132 -43 230 -126 284 -239 49 -103 57 -162 43 -340 -11
-141 -40 -552 -76 -1097 -9 -124 -20 -279 -26 -345 -5 -66 -17 -232 -25 -370
-9 -137 -22 -333 -30 -435 -8 -102 -17 -225 -20 -275 -3 -49 -14 -211 -25
-360 -10 -148 -22 -317 -25 -375 -3 -58 -10 -150 -15 -205 -5 -55 -16 -210
-25 -345 -15 -252 -24 -366 -30 -410 -2 -14 -7 -83 -11 -155 -4 -78 -11 -133
-18 -137 -6 -4 127 -8 296 -8 l307 0 5 33 c3 17 10 111 16 207 13 208 24 372
44 655 14 197 22 304 46 665 11 165 32 462 55 785 9 121 20 285 25 365 5 80
14 204 20 275 41 527 112 1578 112 1660 0 76 -4 114 -20 157 -46 129 -143 229
-270 280 -55 22 -70 23 -367 25 -268 2 -305 1 -270 -11z"/>
<path d="M8714 9552 c-21 -13 -138 -767 -193 -1247 -37 -323 -50 -480 -101
-1225 -23 -327 -54 -761 -70 -965 -15 -203 -27 -371 -25 -373 1 -1 11 5 23 15
23 21 17 -47 87 948 25 347 54 758 65 914 39 540 97 1026 202 1669 39 241 41
282 12 264z"/>
<path d="M16865 7653 c-4 -26 -26 -84 -48 -127 -37 -70 -42 -89 -46 -159 -3
-78 -2 -81 45 -176 46 -90 49 -101 49 -171 0 -70 -4 -82 -48 -170 -48 -93 -48
-96 -45 -175 3 -72 8 -88 48 -165 42 -80 45 -90 45 -165 -1 -75 -3 -84 -43
-157 -27 -49 -45 -95 -49 -127 -7 -64 12 -69 20 -6 4 24 26 81 49 126 41 78
43 86 43 168 0 83 -1 88 -45 166 -43 77 -45 83 -45 165 0 82 2 88 45 170 43
82 45 89 45 171 0 82 -2 88 -45 170 -43 81 -45 87 -45 169 0 81 2 89 44 166
26 48 45 100 48 127 7 63 -13 62 -22 0z"/>
<path d="M17220 7633 c0 -14 -21 -69 -47 -121 -44 -88 -47 -100 -47 -168 1
-66 5 -81 47 -166 43 -85 47 -99 47 -166 0 -66 -4 -81 -47 -169 -44 -89 -47
-102 -47 -169 1 -66 5 -81 47 -166 43 -85 47 -99 47 -164 0 -63 -5 -80 -44
-160 -48 -100 -66 -174 -41 -174 11 0 15 11 15 38 0 24 16 69 47 130 43 85 46
98 46 167 0 69 -3 82 -47 168 -43 85 -47 100 -47 164 0 64 4 80 48 169 44 90
47 103 47 171 -1 66 -5 81 -47 165 -43 85 -47 99 -47 164 0 63 5 80 41 154 42
85 61 160 40 160 -6 0 -11 -12 -11 -27z"/>
<path d="M16625 7518 c-4 -24 -25 -80 -48 -126 -35 -72 -40 -91 -40 -153 0
-64 4 -78 43 -152 39 -74 43 -89 43 -152 1 -64 -3 -77 -43 -152 -39 -74 -43
-88 -43 -152 0 -62 5 -80 44 -162 60 -127 61 -180 2 -299 -46 -94 -61 -160
-37 -160 9 0 14 11 14 33 0 20 18 69 43 118 39 77 42 90 41 159 0 68 -4 82
-42 156 -38 72 -42 88 -42 151 0 63 4 78 42 149 38 72 42 86 43 154 0 69 -4
82 -42 160 -38 75 -43 93 -43 153 0 58 5 78 39 145 40 80 60 156 43 166 -6 3
-13 -13 -17 -36z"/>
<path d="M17431 7338 c-38 -76 -43 -95 -43 -153 0 -56 5 -76 41 -147 35 -70
41 -92 41 -145 0 -51 -7 -75 -41 -147 -36 -74 -41 -95 -41 -151 0 -56 5 -76
41 -147 57 -114 57 -172 2 -284 -44 -89 -59 -154 -35 -154 9 0 14 11 14 32 0
17 18 68 41 113 35 71 40 90 40 150 0 59 -5 78 -40 149 -35 69 -41 90 -41 145
0 55 6 76 41 147 36 72 41 90 40 150 0 58 -6 78 -41 148 -54 110 -55 171 -4
275 19 39 34 80 32 89 -2 10 -22 -19 -47 -70z"/>
<path d="M17591 5715 c-86 -185 -226 -390 -365 -534 -69 -72 -218 -199 -265
-227 -27 -16 -43 -44 -24 -44 16 0 168 123 257 210 115 111 197 210 278 335
96 148 192 345 167 345 -5 0 -27 -38 -48 -85z"/>
<path d="M8950 5755 c-131 -31 -235 -67 -323 -113 -136 -70 -345 -302 -273
-302 8 0 30 21 49 48 44 59 136 147 200 191 82 56 214 103 390 140 97 20 102
23 94 46 -8 19 -10 19 -137 -10z"/>
<path d="M8297 5343 c-4 -3 -7 -22 -7 -41 l0 -35 20 26 c11 14 20 32 20 41 0
16 -21 22 -33 9z"/>
</g>
</svg>
